<svg width="30" height="30" viewBox="0 0 30 30" fill="none" xmlns="http://www.w3.org/2000/svg">
<g clip-path="url(#clip0_1249_52342)">
<path d="M17.3277 30H12.6752C9.74909 30.0129 6.93516 28.8753 4.84015 26.8325C2.65681 24.6319 1.06316 21.9167 0.206404 18.9375C-0.0148306 18.1905 -0.0589418 17.4022 0.0775696 16.6352C0.214081 15.8682 0.527459 15.1435 0.992841 14.5187C1.45822 13.8939 2.0628 13.3862 2.75862 13.0358C3.45443 12.6854 4.22234 12.5019 5.0014 12.5H25.0014C25.7806 12.5018 26.5487 12.6851 27.2447 13.0354C27.9406 13.3858 28.5454 13.8935 29.011 14.5182C29.4767 15.143 29.7903 15.8677 29.927 16.6348C30.0638 17.4019 30.0199 18.1903 29.7989 18.9375C28.9427 21.9172 27.3485 24.6327 25.1639 26.8325C23.0689 28.8761 20.2543 30.0138 17.3277 30ZM5.0014 15C4.61297 14.9981 4.22954 15.0877 3.8821 15.2614C3.53467 15.4351 3.23298 15.6881 3.0014 16C2.76376 16.3156 2.60354 16.6826 2.53363 17.0715C2.46372 17.4603 2.48608 17.8601 2.5989 18.2388C3.34645 20.8099 4.72093 23.1551 6.5989 25.0638C8.22597 26.642 10.4085 27.5171 12.6752 27.5H17.3277C19.5927 27.5157 21.7731 26.6397 23.3977 25.0613C25.2762 23.1531 26.6508 20.8077 27.3977 18.2363C27.5105 17.8576 27.5328 17.4578 27.4629 17.069C27.393 16.6801 27.2328 16.3131 26.9952 15.9975C26.7642 15.6867 26.4634 15.4345 26.1171 15.2613C25.7708 15.088 25.3886 14.9985 25.0014 15H5.0014ZM20.0014 7.5C20.0036 6.77512 19.8619 6.05701 19.5844 5.38732C19.307 4.71763 18.8994 4.10969 18.3852 3.59875C18.1036 3.31852 17.8805 2.98516 17.7288 2.61802C17.577 2.25087 17.4998 1.85725 17.5014 1.46V1.25C17.5014 0.918479 17.3697 0.600537 17.1353 0.366117C16.9009 0.131696 16.5829 0 16.2514 0C15.9199 0 15.6019 0.131696 15.3675 0.366117C15.1331 0.600537 15.0014 0.918479 15.0014 1.25V1.46C14.9993 2.18505 15.1411 2.90331 15.4185 3.57319C15.696 4.24307 16.1035 4.85124 16.6177 5.3625C16.8991 5.64258 17.1221 5.97574 17.2738 6.34266C17.4255 6.70958 17.5029 7.10296 17.5014 7.5C17.5014 7.83152 17.6331 8.14946 17.8675 8.38388C18.1019 8.6183 18.4199 8.75 18.7514 8.75C19.0829 8.75 19.4009 8.6183 19.6353 8.38388C19.8697 8.14946 20.0014 7.83152 20.0014 7.5ZM15.0014 8.75V8.365C15.0034 7.64027 14.8616 6.92233 14.5844 6.25271C14.3072 5.58308 13.9 4.97504 13.3864 4.46375C13.1052 4.18422 12.8822 3.85172 12.7303 3.48547C12.5784 3.11922 12.5006 2.7265 12.5014 2.33V1.25C12.5014 0.918479 12.3697 0.600537 12.1353 0.366117C11.9009 0.131696 11.5829 0 11.2514 0C10.9199 0 10.6019 0.131696 10.3675 0.366117C10.1331 0.600537 10.0014 0.918479 10.0014 1.25V2.33C9.99954 3.05483 10.1414 3.77284 10.4189 4.44248C10.6963 5.11212 11.1037 5.7201 11.6177 6.23125C11.8986 6.51089 12.1214 6.84343 12.2731 7.20967C12.4248 7.57592 12.5024 7.96859 12.5014 8.365V8.75C12.5014 9.08152 12.6331 9.39946 12.8675 9.63388C13.1019 9.8683 13.4199 10 13.7514 10C14.0829 10 14.4009 9.8683 14.6353 9.63388C14.8697 9.39946 15.0014 9.08152 15.0014 8.75Z" fill="#272F39"/>
</g>
<defs>
<clipPath id="clip0_1249_52342">
<rect width="30" height="30" fill="white"/>
</clipPath>
</defs>
</svg>
