<svg width="33" height="8" viewBox="0 0 33 8" fill="none" xmlns="http://www.w3.org/2000/svg">
<path d="M8 4C8 6.20914 6.20914 8 4 8C1.79086 8 0 6.20914 0 4C0 1.79086 1.79086 0 4 0C6.20914 0 8 1.79086 8 4Z" fill="white"/>
<path d="M20.5 4C20.5 6.20914 18.7091 8 16.5 8C14.2909 8 12.5 6.20914 12.5 4C12.5 1.79086 14.2909 0 16.5 0C18.7091 0 20.5 1.79086 20.5 4Z" fill="#FF797F"/>
<path d="M33 4C33 6.20914 31.2091 8 29 8C26.7909 8 25 6.20914 25 4C25 1.79086 26.7909 0 29 0C31.2091 0 33 1.79086 33 4Z" fill="#272F39"/>
</svg>
