<svg width="30" height="30" viewBox="0 0 30 30" fill="none" xmlns="http://www.w3.org/2000/svg">
<g clip-path="url(#clip0_1249_52340)">
<path d="M5.625 13.75C5.70875 15.3662 15.5475 15.3637 15.625 13.75C15.5412 12.1337 5.7025 12.1362 5.625 13.75ZM14.375 6.25C14.4588 7.86625 24.2975 7.86375 24.375 6.25C24.2912 4.63375 14.4525 4.63625 14.375 6.25ZM30 6.25V16.25C30 19.365 26.315 21.895 21.25 22.4025C22.7975 32.0975 0.34625 32.375 0 23.75V13.75C0 10.625 3.7175 8.1075 8.75 7.59875C7.2 -2.09875 29.6537 -2.375 30 6.25ZM11.25 6.25C11.2773 6.73614 11.4824 7.19529 11.8263 7.54C14.4607 7.61662 17.0133 8.4727 19.1613 10C23.8388 10.11 27.5687 8.0525 27.5 6.25C26.9712 1.32125 11.7737 1.325 11.25 6.25ZM2.5 13.75C3.03 18.68 18.2263 18.6737 18.75 13.75C18.22 8.82 3.02375 8.82625 2.5 13.75ZM18.75 23.75V17.8137C15.0462 20.6787 6.20375 20.6787 2.5 17.8137V23.75C3.0275 28.6787 18.2275 28.6737 18.75 23.75ZM27.5 16.25V10.3137C25.5527 11.5562 23.3207 12.2815 21.015 12.4212C21.4613 13.25 21.1737 18.9 21.25 19.8887C25.0363 19.4512 27.5 17.7612 27.5 16.25Z" fill="white"/>
</g>
<defs>
<clipPath id="clip0_1249_52340">
<rect width="30" height="30" fill="white"/>
</clipPath>
</defs>
</svg>
