<svg width="26" height="24" viewBox="0 0 26 24" fill="none" xmlns="http://www.w3.org/2000/svg">
<g clip-path="url(#clip0_1288_54448)">
<path d="M12.0476 0.927068C12.347 0.00575697 13.6504 0.00575572 13.9498 0.927066L16.1419 7.67378C16.2758 8.0858 16.6597 8.36477 17.093 8.36477H24.1869C25.1556 8.36477 25.5584 9.60438 24.7747 10.1738L19.0356 14.3435C18.6851 14.5981 18.5384 15.0495 18.6723 15.4615L20.8644 22.2082C21.1638 23.1295 20.1093 23.8956 19.3256 23.3262L13.5865 19.1565C13.236 18.9019 12.7614 18.9019 12.4109 19.1565L6.67179 23.3262C5.88808 23.8956 4.83361 23.1295 5.13296 22.2082L7.32509 15.4615C7.45896 15.0495 7.3123 14.5981 6.96182 14.3435L1.22272 10.1738C0.439012 9.60438 0.841787 8.36477 1.81051 8.36477H8.90442C9.33764 8.36477 9.7216 8.0858 9.85547 7.67378L12.0476 0.927068Z" fill="#BF0000"/>
</g>
<defs>
<clipPath id="clip0_1288_54448">
<rect width="26" height="24" fill="white"/>
</clipPath>
</defs>
</svg>
